<svg
  xmlns="http://www.w3.org/2000/svg"
  viewBox="0 0 320 320"
  fill="none"
  role="img"
>
  <style id="kugutu-parts-style">
[data-kugutu-variant-slot="face"] { display: none; }
[data-kugutu-variant-slot="face"][data-kugutu-variant-id="face-round"] { display: inline; }
[data-kugutu-variant-slot="hair.back"] { display: none; }
[data-kugutu-variant-slot="hair.back"][data-kugutu-variant-id="hair-back-bob"] { display: inline; }
[data-kugutu-variant-slot="hair.front"] { display: none; }
[data-kugutu-variant-slot="hair.front"][data-kugutu-variant-id="hair-front-bangs"] { display: inline; }
[data-kugutu-variant-slot="eye"] { display: none; }
[data-kugutu-variant-slot="eye"][data-kugutu-variant-id="eye-round"] { display: inline; }
[data-kugutu-variant-slot="brow"] { display: none; }
[data-kugutu-variant-slot="brow"][data-kugutu-variant-id="brow-soft"] { display: inline; }
[data-kugutu-variant-slot="nose"] { display: none; }
[data-kugutu-variant-slot="nose"][data-kugutu-variant-id="nose-dot"] { display: inline; }
[data-kugutu-variant-slot="mouth"] { display: none; }
[data-kugutu-variant-slot="mouth"][data-kugutu-variant-id="mouth-smile"] { display: inline; }
[data-kugutu-variant-slot="glasses"] { display: none; }
[data-kugutu-variant-slot="glasses"][data-kugutu-variant-id="glasses-none"] { display: inline; }
[data-kugutu-variant-slot="hair.accessory"] { display: none; }
[data-kugutu-variant-slot="hair.accessory"][data-kugutu-variant-id="hair-accessory-none"] { display: inline; }
[data-kugutu-variant-slot="beard"] { display: none; }
[data-kugutu-variant-slot="beard"][data-kugutu-variant-id="beard-none"] { display: inline; }
[data-kugutu-variant-slot="outfit"] { display: none; }
[data-kugutu-variant-slot="outfit"][data-kugutu-variant-id="outfit-tee"] { display: inline; }
</style>
  <title>Kugutu Mascot Rig</title>
  <!--
    Unified-art-direction rig. Face/hair/feature parts are file fragments drawn
    around their own local origin and injected at the anchor mounts below
    (data-kugutu-slot-mount). Paired slots (eye, brow) have a left mount and a
    mirrored right mount, so a single part fragment fills both sides.

    Palette tokens (apply consistently across all part fragments):
      skin        #FAD0B0    skin-shade  #F3B591
      ink         #34344A    blush       #FF9E9E
      hair        #7C6CF0    hair-shade  #6253D6
      accent      #FF8360    accent-2    #46C2A8
      white       #FFFFFF
  -->

  <ellipse cx="160" cy="296" rx="92" ry="15" fill="#34344A" opacity="0.10" />

  <!--
    Arms are FK joint chains, but the joints are NOT DOM-nested: the runtime
    composes each joint's transform from its <circle data-kugutu-pivot> marker
    (shoulder/elbow/wrist, in root coords) and the slot parent chain. That lets
    the joints live at different z-layers: the UPPER ARMS are drawn BEFORE the
    torso (behind the shirt) while the FOREARMS + HANDS are drawn AFTER it (in
    front). So the shoulder/upper-arm tucks behind the clothes and the forearm
    reads in front — without breaking the shoulder→elbow→wrist bend.

    Single-tone skin capsules (round-capped <line>s overlapping at the elbow so
    they read as one soft, bendable arm) with mitten hands. Rest pose is a
    relaxed V bend with the hands held up at the sides, kept above the outfit
    hem so nothing dangles below the body.
  -->
  <g id="upper_arm_l">
    <circle data-kugutu-pivot cx="120" cy="240" r="0.01" fill="none" />
    <line x1="120" y1="240" x2="82" y2="266" stroke="#FAD0B0" stroke-width="18" stroke-linecap="round" />
  </g>
  <g id="upper_arm_r">
    <circle data-kugutu-pivot cx="200" cy="240" r="0.01" fill="none" />
    <line x1="200" y1="240" x2="238" y2="266" stroke="#FAD0B0" stroke-width="18" stroke-linecap="round" />
  </g>

  <g id="torso_group">
    <g transform="translate(160 250)">
      <g data-kugutu-slot-mount="outfit"><g data-kugutu-variant-slot="outfit" data-kugutu-variant-id="outfit-tee"><g>
  <!-- Tee body: gently tapered, soft rounded hem. -->
  <path d="M-60 -18 Q-32 -34 0 -34 Q32 -34 60 -18 L68 36 Q0 46 -68 36 Z" fill="#FF8360" />
  <!-- Neckline (a soft collar accent). -->
  <path d="M-21 -31 Q0 -15 21 -31" fill="none" stroke="#E96A4A" stroke-width="4" stroke-linecap="round" />
  <!-- Short cap sleeves = the shirt's shoulder. Each is wrapped in a follower
       group so it rotates with its upper arm (data-kugutu-follow), pivoting at
       the shoulder (outfit-local: root shoulder 200/120,240 minus the mount's
       translate 160,250 = ±40,-10). amount<1 = fabric lag. The darker cuff band
       marks the sleeve opening so it reads as a rolled sleeve, not a wrinkle. -->
  <g data-kugutu-follow="upperArm.r" data-kugutu-follow-amount="0.85">
    <circle data-kugutu-pivot cx="40" cy="-10" r="0.01" fill="none" />
    <path d="M40 -22 Q66 -24 74 -2 Q76 13 59 17 Q46 7 42 -10 Z" fill="#FF8360" />
    <path d="M59 16 Q73 11 74 -2" fill="none" stroke="#E96A4A" stroke-width="4" stroke-linecap="round" />
  </g>
  <g data-kugutu-follow="upperArm.l" data-kugutu-follow-amount="0.85">
    <circle data-kugutu-pivot cx="-40" cy="-10" r="0.01" fill="none" />
    <path d="M-40 -22 Q-66 -24 -74 -2 Q-76 13 -59 17 Q-46 7 -42 -10 Z" fill="#FF8360" />
    <path d="M-59 16 Q-73 11 -74 -2" fill="none" stroke="#E96A4A" stroke-width="4" stroke-linecap="round" />
  </g>
</g></g><g data-kugutu-variant-slot="outfit" data-kugutu-variant-id="outfit-collar"><g>
  <path d="M-60 -18 Q-32 -34 0 -34 Q32 -34 60 -18 L68 36 Q0 46 -68 36 Z" fill="#FF8360" />
  <!-- Cap sleeves follow the upper arms (see outfit-tee.svg for the rig). -->
  <g data-kugutu-follow="upperArm.r" data-kugutu-follow-amount="0.85">
    <circle data-kugutu-pivot cx="40" cy="-10" r="0.01" fill="none" />
    <path d="M40 -22 Q66 -24 74 -2 Q76 13 59 17 Q46 7 42 -10 Z" fill="#FF8360" />
    <path d="M59 16 Q73 11 74 -2" fill="none" stroke="#E96A4A" stroke-width="4" stroke-linecap="round" />
  </g>
  <g data-kugutu-follow="upperArm.l" data-kugutu-follow-amount="0.85">
    <circle data-kugutu-pivot cx="-40" cy="-10" r="0.01" fill="none" />
    <path d="M-40 -22 Q-66 -24 -74 -2 Q-76 13 -59 17 Q-46 7 -42 -10 Z" fill="#FF8360" />
    <path d="M-59 16 Q-73 11 -74 -2" fill="none" stroke="#E96A4A" stroke-width="4" stroke-linecap="round" />
  </g>
  <path d="M-20 -30 L0 -8 L20 -30 L12 -34 L0 -20 L-12 -34 Z" fill="#FFFFFF" />
</g></g><g data-kugutu-variant-slot="outfit" data-kugutu-variant-id="outfit-hoodie"><g>
  <path d="M-62 -16 Q-32 -34 0 -34 Q32 -34 62 -16 L72 38 Q0 48 -72 38 Z" fill="#46C2A8" />
  <!-- Baggier cap sleeves follow the upper arms (see outfit-tee.svg for the rig). -->
  <g data-kugutu-follow="upperArm.r" data-kugutu-follow-amount="0.85">
    <circle data-kugutu-pivot cx="40" cy="-10" r="0.01" fill="none" />
    <path d="M42 -20 Q70 -23 79 0 Q81 15 63 19 Q50 9 45 -8 Z" fill="#46C2A8" />
    <path d="M63 18 Q78 13 79 0" fill="none" stroke="#3AA890" stroke-width="4" stroke-linecap="round" />
  </g>
  <g data-kugutu-follow="upperArm.l" data-kugutu-follow-amount="0.85">
    <circle data-kugutu-pivot cx="-40" cy="-10" r="0.01" fill="none" />
    <path d="M-42 -20 Q-70 -23 -79 0 Q-81 15 -63 19 Q-50 9 -45 -8 Z" fill="#46C2A8" />
    <path d="M-63 18 Q-78 13 -79 0" fill="none" stroke="#3AA890" stroke-width="4" stroke-linecap="round" />
  </g>
  <path d="M-28 -28 Q0 -12 28 -28 L23 -2 Q0 8 -23 -2 Z" fill="#3AA890" />
  <path d="M-10 -6 L-10 34" fill="none" stroke="#2E8B76" stroke-width="3.5" stroke-linecap="round" />
  <path d="M10 -6 L10 34" fill="none" stroke="#2E8B76" stroke-width="3.5" stroke-linecap="round" />
</g></g><g data-kugutu-variant-slot="outfit" data-kugutu-variant-id="outfit-turtleneck"><g>
  <path d="M-60 -18 Q-32 -34 0 -34 Q32 -34 60 -18 L68 36 Q0 46 -68 36 Z" fill="#6C8FD6" />
  <!-- Cap sleeves follow the upper arms (see outfit-tee.svg for the rig). -->
  <g data-kugutu-follow="upperArm.r" data-kugutu-follow-amount="0.85">
    <circle data-kugutu-pivot cx="40" cy="-10" r="0.01" fill="none" />
    <path d="M40 -22 Q66 -24 74 -2 Q76 13 59 17 Q46 7 42 -10 Z" fill="#6C8FD6" />
    <path d="M59 16 Q73 11 74 -2" fill="none" stroke="#5878BC" stroke-width="4" stroke-linecap="round" />
  </g>
  <g data-kugutu-follow="upperArm.l" data-kugutu-follow-amount="0.85">
    <circle data-kugutu-pivot cx="-40" cy="-10" r="0.01" fill="none" />
    <path d="M-40 -22 Q-66 -24 -74 -2 Q-76 13 -59 17 Q-46 7 -42 -10 Z" fill="#6C8FD6" />
    <path d="M-59 16 Q-73 11 -74 -2" fill="none" stroke="#5878BC" stroke-width="4" stroke-linecap="round" />
  </g>
  <!-- The full collar is the rear layer, behind the neck. Keeping the complete
       silhouette here also prevents an antialiasing seam while it breathes. -->
  <path d="M-21 -31 Q0 -20 21 -31 L19 -42 Q0 -32 -19 -42 Z" fill="#5878BC" />

</g></g></g>
    </g>
  </g>

  <!-- The neck is sandwiched between an outfit's base/rear artwork and its
       optional front layer, so collars can wrap around it naturally. -->
  <g id="neck_group">
    <rect x="146" y="192" width="28" height="30" rx="12" fill="#F3B591" />
    <g transform="translate(160 250)">
      <g data-kugutu-slot-mount="outfit" data-kugutu-slot-layer="front"><g data-kugutu-variant-slot="outfit" data-kugutu-variant-id="outfit-turtleneck"><g data-kugutu-part-layer="front">
    <!-- This lower/front half is reinjected after the neck, so skin stays inside
         the collar without bringing the rear rim in front. -->
    <path d="M-21 -31 Q0 -20 21 -31 L20 -38 Q0 -28 -20 -38 Z" fill="#5878BC" />
  </g></g></g>
    </g>
  </g>

  <g id="forearm_l">
    <circle data-kugutu-pivot cx="82" cy="266" r="0.01" fill="none" />
    <line x1="82" y1="266" x2="90" y2="232" stroke="#FAD0B0" stroke-width="16" stroke-linecap="round" />
  </g>
  <g id="hand_l">
    <circle data-kugutu-pivot cx="90" cy="232" r="0.01" fill="none" />
    <ellipse cx="88" cy="228" rx="13" ry="14" fill="#FAD0B0" />
  </g>
  <g id="forearm_r">
    <circle data-kugutu-pivot cx="238" cy="266" r="0.01" fill="none" />
    <line x1="238" y1="266" x2="230" y2="232" stroke="#FAD0B0" stroke-width="16" stroke-linecap="round" />
  </g>
  <g id="hand_r">
    <circle data-kugutu-pivot cx="230" cy="232" r="0.01" fill="none" />
    <ellipse cx="232" cy="228" rx="13" ry="14" fill="#FAD0B0" />
  </g>

  <g id="head_group">
    <g transform="translate(160 126)">
      <g id="hair_back">
        <g data-kugutu-slot-mount="hair.back"><g data-kugutu-variant-slot="hair.back" data-kugutu-variant-id="hair-back-bob"><g>
  <path d="M-80 -14 Q-90 64 -52 92 Q-58 60 -56 30 Q-72 -58 0 -48 Q72 -58 56 30 Q58 60 52 92 Q90 64 80 -14 Q80 -88 0 -88 Q-80 -88 -80 -14 Z" fill="#6253D6" />
</g></g><g data-kugutu-variant-slot="hair.back" data-kugutu-variant-id="hair-back-long"><g>
  <path d="M-80 -14 Q-92 92 -60 122 Q-66 60 -58 28 Q-72 -58 0 -48 Q72 -58 58 28 Q66 60 60 122 Q92 92 80 -14 Q80 -88 0 -88 Q-80 -88 -80 -14 Z" fill="#6253D6" />
</g></g><g data-kugutu-variant-slot="hair.back" data-kugutu-variant-id="hair-back-none"><g><!-- no back hair --></g></g><g data-kugutu-variant-slot="hair.back" data-kugutu-variant-id="hair-back-ponytail"><g>
  <path d="M-78 -14 Q-86 44 -54 64 Q-60 30 -56 12 Q-72 -58 0 -48 Q72 -58 56 12 Q60 30 54 64 Q86 44 78 -14 Q78 -88 0 -88 Q-78 -88 -78 -14 Z" fill="#6253D6" />
  <path d="M52 -8 Q104 6 108 70 Q120 116 92 128 Q100 92 84 60 Q70 30 48 18 Z" fill="#6253D6" />
</g></g></g>
      </g>
    </g>

    <g transform="translate(160 126)">
      <g data-kugutu-slot-mount="face"><g data-kugutu-variant-slot="face" data-kugutu-variant-id="face-round"><g>
  <circle cx="-78" cy="6" r="13" fill="#FAD0B0" />
  <circle cx="78" cy="6" r="13" fill="#FAD0B0" />
  <circle cx="0" cy="0" r="80" fill="#FAD0B0" />
  <ellipse cx="-46" cy="26" rx="13" ry="8.5" fill="#FF9E9E" opacity="0.45" />
  <ellipse cx="46" cy="26" rx="13" ry="8.5" fill="#FF9E9E" opacity="0.45" />
</g></g><g data-kugutu-variant-slot="face" data-kugutu-variant-id="face-oval"><g>
  <circle cx="-76" cy="6" r="13" fill="#FAD0B0" />
  <circle cx="76" cy="6" r="13" fill="#FAD0B0" />
  <ellipse cx="0" cy="0" rx="76" ry="84" fill="#FAD0B0" />
  <ellipse cx="-44" cy="30" rx="12" ry="8" fill="#FF9E9E" opacity="0.45" />
  <ellipse cx="44" cy="30" rx="12" ry="8" fill="#FF9E9E" opacity="0.45" />
</g></g></g>
    </g>

    <g transform="translate(132 104)">
      <g id="brow_left">
        <g data-kugutu-slot-mount="brow"><g data-kugutu-variant-slot="brow" data-kugutu-variant-id="brow-soft"><g>
  <path d="M-13 2 Q0 -5 13 0" fill="none" stroke="#34344A" stroke-width="4.5" stroke-linecap="round" />
</g></g><g data-kugutu-variant-slot="brow" data-kugutu-variant-id="brow-raised"><g>
  <path d="M-13 3 Q0 -10 13 -2" fill="none" stroke="#34344A" stroke-width="4.5" stroke-linecap="round" />
</g></g><g data-kugutu-variant-slot="brow" data-kugutu-variant-id="brow-flat"><g>
  <path d="M-13 0 L13 0" fill="none" stroke="#34344A" stroke-width="4.5" stroke-linecap="round" />
</g></g><g data-kugutu-variant-slot="brow" data-kugutu-variant-id="brow-angry"><g>
  <path d="M-13 -4 Q0 -2 13 4" fill="none" stroke="#34344A" stroke-width="4.5" stroke-linecap="round" />
</g></g><g data-kugutu-variant-slot="brow" data-kugutu-variant-id="brow-worried"><g>
  <path d="M-13 3 Q0 0 13 -4" fill="none" stroke="#34344A" stroke-width="4.5" stroke-linecap="round" />
</g></g></g>
      </g>
    </g>
    <g transform="translate(188 104)">
      <g id="brow_right">
        <g data-kugutu-slot-mount="brow" transform="scale(-1 1)"><g data-kugutu-variant-slot="brow" data-kugutu-variant-id="brow-soft"><g>
  <path d="M-13 2 Q0 -5 13 0" fill="none" stroke="#34344A" stroke-width="4.5" stroke-linecap="round" />
</g></g><g data-kugutu-variant-slot="brow" data-kugutu-variant-id="brow-raised"><g>
  <path d="M-13 3 Q0 -10 13 -2" fill="none" stroke="#34344A" stroke-width="4.5" stroke-linecap="round" />
</g></g><g data-kugutu-variant-slot="brow" data-kugutu-variant-id="brow-flat"><g>
  <path d="M-13 0 L13 0" fill="none" stroke="#34344A" stroke-width="4.5" stroke-linecap="round" />
</g></g><g data-kugutu-variant-slot="brow" data-kugutu-variant-id="brow-angry"><g>
  <path d="M-13 -4 Q0 -2 13 4" fill="none" stroke="#34344A" stroke-width="4.5" stroke-linecap="round" />
</g></g><g data-kugutu-variant-slot="brow" data-kugutu-variant-id="brow-worried"><g>
  <path d="M-13 3 Q0 0 13 -4" fill="none" stroke="#34344A" stroke-width="4.5" stroke-linecap="round" />
</g></g></g>
      </g>
    </g>

    <g transform="translate(132 132)">
      <g id="eye_left">
        <g data-kugutu-slot-mount="eye"><g data-kugutu-variant-slot="eye" data-kugutu-variant-id="eye-round"><g>
  <ellipse cx="0" cy="0" rx="13" ry="15" fill="#FFFFFF" data-kugutu-color-preserve />
  <circle cx="0" cy="2" r="7.5" fill="#34344A" />
  <circle cx="-2.6" cy="-1.4" r="2.6" fill="#FFFFFF" data-kugutu-color-preserve />
</g></g><g data-kugutu-variant-slot="eye" data-kugutu-variant-id="eye-wide"><g>
  <!-- Wide-awake eye: tall aperture so sclera shows above and below a
       same-size pupil (not just a scaled-up round eye), two-tone iris and
       a second sparkle for an alert, surprised look. -->
  <ellipse cx="0" cy="-0.5" rx="15.5" ry="18.5" fill="#FFFFFF" data-kugutu-color-preserve />
  <circle cx="0" cy="1.5" r="7.6" fill="#34344A" />
  <circle cx="0" cy="1.5" r="3.6" fill="#566089" />
  <circle cx="-2.8" cy="-1.6" r="3.1" fill="#FFFFFF" data-kugutu-color-preserve />
  <circle cx="3.2" cy="3.6" r="1.6" fill="#FFFFFF" opacity="0.85" data-kugutu-color-preserve />
</g></g><g data-kugutu-variant-slot="eye" data-kugutu-variant-id="eye-sleepy"><g>
  <!-- Half-lidded sleepy eye: a heavy upper lid drooping at the outer corner,
       with only the lower half of the iris peeking out beneath it and a faint
       lower lash line. Reads as drowsy rather than a closed happy arc. -->
  <path d="M-12 -1.5 Q-1 2 12 0.5" fill="none" stroke="#34344A" stroke-width="3.6" stroke-linecap="round" />
  <path d="M-6.5 2.5 A6.5 6.5 0 0 0 6.5 2.5 Z" fill="#34344A" />
  <path d="M-7 3.5 Q0 5.4 7 3.5" fill="none" stroke="#34344A" stroke-width="1.8" stroke-linecap="round" opacity="0.45" />
</g></g><g data-kugutu-variant-slot="eye" data-kugutu-variant-id="eye-sharp"><g>
  <path d="M-14 1 Q0 -13 14 -1 Q0 9 -14 1 Z" fill="#FFFFFF" data-kugutu-color-preserve />
  <circle cx="1" cy="-1" r="6.5" fill="#34344A" />
  <circle cx="-1.6" cy="-3.4" r="2.2" fill="#FFFFFF" data-kugutu-color-preserve />
</g></g><g data-kugutu-variant-slot="eye" data-kugutu-variant-id="eye-happy"><g>
  <path d="M-12 -2 Q0 8 12 -2" fill="none" stroke="#34344A" stroke-width="4.5" stroke-linecap="round" />
</g></g><g data-kugutu-variant-slot="eye" data-kugutu-variant-id="eye-sparkle"><g>
  <ellipse cx="0" cy="0" rx="13" ry="15" fill="#FFFFFF" data-kugutu-color-preserve />
  <circle cx="0" cy="2" r="7.5" fill="#34344A" />
  <circle cx="-2.6" cy="-1.4" r="2.8" fill="#FFFFFF" data-kugutu-color-preserve />
  <circle cx="2.6" cy="4.4" r="1.7" fill="#FFFFFF" data-kugutu-color-preserve />
</g></g></g>
      </g>
    </g>
    <g transform="translate(188 132)">
      <g id="eye_right">
        <g data-kugutu-slot-mount="eye" transform="scale(-1 1)"><g data-kugutu-variant-slot="eye" data-kugutu-variant-id="eye-round"><g>
  <ellipse cx="0" cy="0" rx="13" ry="15" fill="#FFFFFF" data-kugutu-color-preserve />
  <circle cx="0" cy="2" r="7.5" fill="#34344A" />
  <circle cx="-2.6" cy="-1.4" r="2.6" fill="#FFFFFF" data-kugutu-color-preserve />
</g></g><g data-kugutu-variant-slot="eye" data-kugutu-variant-id="eye-wide"><g>
  <!-- Wide-awake eye: tall aperture so sclera shows above and below a
       same-size pupil (not just a scaled-up round eye), two-tone iris and
       a second sparkle for an alert, surprised look. -->
  <ellipse cx="0" cy="-0.5" rx="15.5" ry="18.5" fill="#FFFFFF" data-kugutu-color-preserve />
  <circle cx="0" cy="1.5" r="7.6" fill="#34344A" />
  <circle cx="0" cy="1.5" r="3.6" fill="#566089" />
  <circle cx="-2.8" cy="-1.6" r="3.1" fill="#FFFFFF" data-kugutu-color-preserve />
  <circle cx="3.2" cy="3.6" r="1.6" fill="#FFFFFF" opacity="0.85" data-kugutu-color-preserve />
</g></g><g data-kugutu-variant-slot="eye" data-kugutu-variant-id="eye-sleepy"><g>
  <!-- Half-lidded sleepy eye: a heavy upper lid drooping at the outer corner,
       with only the lower half of the iris peeking out beneath it and a faint
       lower lash line. Reads as drowsy rather than a closed happy arc. -->
  <path d="M-12 -1.5 Q-1 2 12 0.5" fill="none" stroke="#34344A" stroke-width="3.6" stroke-linecap="round" />
  <path d="M-6.5 2.5 A6.5 6.5 0 0 0 6.5 2.5 Z" fill="#34344A" />
  <path d="M-7 3.5 Q0 5.4 7 3.5" fill="none" stroke="#34344A" stroke-width="1.8" stroke-linecap="round" opacity="0.45" />
</g></g><g data-kugutu-variant-slot="eye" data-kugutu-variant-id="eye-sharp"><g>
  <path d="M-14 1 Q0 -13 14 -1 Q0 9 -14 1 Z" fill="#FFFFFF" data-kugutu-color-preserve />
  <circle cx="1" cy="-1" r="6.5" fill="#34344A" />
  <circle cx="-1.6" cy="-3.4" r="2.2" fill="#FFFFFF" data-kugutu-color-preserve />
</g></g><g data-kugutu-variant-slot="eye" data-kugutu-variant-id="eye-happy"><g>
  <path d="M-12 -2 Q0 8 12 -2" fill="none" stroke="#34344A" stroke-width="4.5" stroke-linecap="round" />
</g></g><g data-kugutu-variant-slot="eye" data-kugutu-variant-id="eye-sparkle"><g>
  <ellipse cx="0" cy="0" rx="13" ry="15" fill="#FFFFFF" data-kugutu-color-preserve />
  <circle cx="0" cy="2" r="7.5" fill="#34344A" />
  <circle cx="-2.6" cy="-1.4" r="2.8" fill="#FFFFFF" data-kugutu-color-preserve />
  <circle cx="2.6" cy="4.4" r="1.7" fill="#FFFFFF" data-kugutu-color-preserve />
</g></g></g>
      </g>
    </g>

    <g transform="translate(160 142)">
      <g id="nose_node">
        <g data-kugutu-slot-mount="nose"><g data-kugutu-variant-slot="nose" data-kugutu-variant-id="nose-dot"><g>
  <circle cx="0" cy="0" r="3.4" fill="#F3B591" />
</g></g><g data-kugutu-variant-slot="nose" data-kugutu-variant-id="nose-button"><g>
  <path d="M-5 -3 Q0 6 5 -3" fill="none" stroke="#E0916F" stroke-width="3.6" stroke-linecap="round" stroke-linejoin="round" />
</g></g><g data-kugutu-variant-slot="nose" data-kugutu-variant-id="nose-line"><g>
  <path d="M1 -4 Q-2 3 -4 4" fill="none" stroke="#E0916F" stroke-width="3.2" stroke-linecap="round" stroke-linejoin="round" />
</g></g></g>
      </g>
    </g>

    <!-- Beard sits under the mouth so lips/teeth stay readable on top of it.
         Anchored at the mouth origin: mustaches draw above y=0, chin beards below. -->
    <g transform="translate(160 170)">
      <g data-kugutu-slot-mount="beard"><g data-kugutu-variant-slot="beard" data-kugutu-variant-id="beard-mustache"><g>
  <path d="M0 -7 Q-4 -15 -13 -16 Q-25 -17 -27 -8 Q-28 -1 -19 -2 Q-8 -3 0 -7 Z" fill="#7C6CF0" />
  <path d="M0 -7 Q4 -15 13 -16 Q25 -17 27 -8 Q28 -1 19 -2 Q8 -3 0 -7 Z" fill="#7C6CF0" />
</g></g><g data-kugutu-variant-slot="beard" data-kugutu-variant-id="beard-goatee"><g>
  <path d="M-14 16 Q-16 31 0 35 Q16 31 14 16 Q8 23 0 23 Q-8 23 -14 16 Z" fill="#7C6CF0" />
</g></g><g data-kugutu-variant-slot="beard" data-kugutu-variant-id="beard-full"><g>
  <path d="M-68 -6 Q-70 14 -48 28 Q-24 40 0 40 Q24 40 48 28 Q70 14 68 -6 Q56 -18 36 -15 Q18 -20 4 -10 Q0 -7 -4 -10 Q-18 -20 -36 -15 Q-56 -18 -68 -6 Z" fill="#7C6CF0" />
  <path d="M-4 -10 Q0 -7 4 -10 Q14 -17 26 -16 Q14 -12 8 -4 Q0 2 -8 -4 Q-14 -12 -26 -16 Q-14 -17 -4 -10 Z" fill="#34344A" opacity="0.15" data-kugutu-color-preserve />
</g></g><g data-kugutu-variant-slot="beard" data-kugutu-variant-id="beard-none"><g><!-- no beard --></g></g></g>
    </g>

    <g transform="translate(160 170)">
      <g id="mouth_group">
        <g data-kugutu-slot-mount="mouth"><g data-kugutu-variant-slot="mouth" data-kugutu-variant-id="mouth-smile"><g>
  <g data-kugutu-mouth-open>
    <path d="M-12 -3 Q0 7 12 -3 Q13 13 0 15 Q-13 13 -12 -3 Z" fill="#7A2E3A" />
    <path d="M-7 9 Q0 14 7 9 Q0 6 -7 9 Z" fill="#FF8E8E" />
    <path d="M-12 -3 Q0 7 12 -3" fill="none" stroke="#34344A" stroke-width="2.6" stroke-linecap="round" vector-effect="non-scaling-stroke" />
  </g>
  <g data-kugutu-mouth-closed>
    <path d="M-12 -3 Q0 7 12 -3" fill="none" stroke="#34344A" stroke-width="3" stroke-linecap="round" />
  </g>
</g></g><g data-kugutu-variant-slot="mouth" data-kugutu-variant-id="mouth-grin"><g>
  <g data-kugutu-mouth-open>
    <path d="M-13 -3 Q0 7 13 -3 Q14 14 0 16 Q-14 14 -13 -3 Z" fill="#7A2E3A" />
    <path d="M-12 -2 Q0 6 12 -2 L11 2 Q0 9 -11 2 Z" fill="#FFFFFF" />
    <path d="M-7 11 Q0 15 7 11 Q0 8 -7 11 Z" fill="#FF8E8E" />
    <path d="M-13 -3 Q0 7 13 -3" fill="none" stroke="#34344A" stroke-width="2.6" stroke-linecap="round" vector-effect="non-scaling-stroke" />
  </g>
  <g data-kugutu-mouth-closed>
    <path d="M-13 -3 Q0 7 13 -3" fill="none" stroke="#34344A" stroke-width="3" stroke-linecap="round" />
  </g>
</g></g><g data-kugutu-variant-slot="mouth" data-kugutu-variant-id="mouth-open"><g>
  <g data-kugutu-mouth-open>
    <path d="M-11 -4 Q0 0 11 -4 Q13 10 0 13 Q-13 10 -11 -4 Z" fill="#7A2E3A" />
    <path d="M-7 8 Q0 13 7 8 Q0 5 -7 8 Z" fill="#FF8E8E" />
    <path d="M-11 -4 Q0 0 11 -4" fill="none" stroke="#34344A" stroke-width="2.4" stroke-linecap="round" vector-effect="non-scaling-stroke" />
  </g>
  <g data-kugutu-mouth-closed>
    <path d="M-8 0 Q0 2 8 0" fill="none" stroke="#34344A" stroke-width="2.8" stroke-linecap="round" />
  </g>
</g></g><g data-kugutu-variant-slot="mouth" data-kugutu-variant-id="mouth-neutral"><g>
  <!-- The runtime crossfades between the open and closed groups by the mouth
       open amount, so each mouth has a real, distinct open state rather than a
       stretched line. Open artwork is authored at full-open size. -->
  <g data-kugutu-mouth-open>
    <path d="M-9 -1 Q0 2 9 -1 Q11 9 0 12 Q-11 9 -9 -1 Z" fill="#7A2E3A" />
    <path d="M-6 7 Q0 12 6 7 Q0 4 -6 7 Z" fill="#FF8E8E" />
    <path d="M-9 -1 Q0 2 9 -1" fill="none" stroke="#34344A" stroke-width="2.8" stroke-linecap="round" vector-effect="non-scaling-stroke" />
  </g>
  <g data-kugutu-mouth-closed>
    <path d="M-10 0 Q0 1 10 0" fill="none" stroke="#34344A" stroke-width="2.8" stroke-linecap="round" />
  </g>
</g></g><g data-kugutu-variant-slot="mouth" data-kugutu-variant-id="mouth-frown"><g>
  <g data-kugutu-mouth-open>
    <path d="M-11 2 Q0 -4 11 2 Q11 9 0 11 Q-11 9 -11 2 Z" fill="#7A2E3A" />
    <path d="M-11 3 Q0 -5 11 3" fill="none" stroke="#34344A" stroke-width="2.8" stroke-linecap="round" vector-effect="non-scaling-stroke" />
  </g>
  <g data-kugutu-mouth-closed>
    <path d="M-11 3 Q0 -5 11 3" fill="none" stroke="#34344A" stroke-width="3" stroke-linecap="round" />
  </g>
</g></g><g data-kugutu-variant-slot="mouth" data-kugutu-variant-id="mouth-cat"><g>
  <g data-kugutu-mouth-open>
    <path d="M-10 -2 Q0 4 10 -2 Q11 12 0 14 Q-11 12 -10 -2 Z" fill="#7A2E3A" />
    <path d="M-6 8 Q0 12 6 8 Q0 6 -6 8 Z" fill="#FF8E8E" />
    <path d="M-11 -1 Q-5 6 0 -1 Q5 6 11 -1" fill="none" stroke="#34344A" stroke-width="2.6" stroke-linecap="round" vector-effect="non-scaling-stroke" />
  </g>
  <g data-kugutu-mouth-closed>
    <path d="M-11 -1 Q-5 6 0 -1 Q5 6 11 -1" fill="none" stroke="#34344A" stroke-width="3" stroke-linecap="round" />
  </g>
</g></g><g data-kugutu-variant-slot="mouth" data-kugutu-variant-id="mouth-o"><g>
  <g data-kugutu-mouth-open>
    <ellipse cx="0" cy="4" rx="7" ry="9" fill="#7A2E3A" />
    <ellipse cx="0" cy="8" rx="4.4" ry="4" fill="#FF8E8E" />
    <ellipse cx="0" cy="2" rx="7" ry="6.5" fill="none" stroke="#34344A" stroke-width="2.6" vector-effect="non-scaling-stroke" />
  </g>
  <g data-kugutu-mouth-closed>
    <ellipse cx="0" cy="2" rx="4.6" ry="5.6" fill="none" stroke="#34344A" stroke-width="3" />
  </g>
</g></g></g>
      </g>
    </g>

    <g transform="translate(160 126)">
      <g id="hair_front">
        <g data-kugutu-slot-mount="hair.front"><g data-kugutu-variant-slot="hair.front" data-kugutu-variant-id="hair-front-bangs"><g>
  <path d="M-80 -6 Q-82 -78 0 -82 Q82 -78 80 -6 Q58 -40 30 -36 Q34 -19 14 -25 Q18 -42 -6 -42 Q-4 -21 -24 -27 Q-22 -43 -48 -35 Q-62 -38 -80 -6 Z" fill="#7C6CF0" />
  <path d="M-80 -6 Q-82 -78 0 -82 Q-40 -70 -56 -34 Q-70 -22 -80 -6 Z" fill="#8A7BF5" />
</g></g><g data-kugutu-variant-slot="hair.front" data-kugutu-variant-id="hair-front-side"><g>
  <path d="M-80 -8 Q-78 -80 6 -82 Q72 -80 80 -20 Q58 -50 16 -45 Q-12 -43 -36 -33 Q-58 -27 -80 -8 Z" fill="#7C6CF0" />
  <path d="M62 -64 Q80 -44 80 -20 Q60 -40 40 -42 Q54 -54 62 -64 Z" fill="#6253D6" />
</g></g><g data-kugutu-variant-slot="hair.front" data-kugutu-variant-id="hair-front-spiky"><g>
  <path d="M-80 -8 Q-82 -78 0 -82 Q82 -78 80 -8 L62 -34 L50 -14 L34 -36 L22 -14 L6 -38 L-8 -14 L-24 -36 L-40 -14 L-54 -34 L-80 -8 Z" fill="#7C6CF0" />
</g></g><g data-kugutu-variant-slot="hair.front" data-kugutu-variant-id="hair-front-none"><g><!-- no front hair --></g></g><g data-kugutu-variant-slot="hair.front" data-kugutu-variant-id="hair-front-center"><g>
  <path d="M-80 -6 Q-82 -78 0 -82 Q82 -78 80 -6 Q76 -26 60 -26 Q30 -30 4 -62 Q0 -66 -4 -62 Q-30 -30 -60 -26 Q-76 -26 -80 -6 Z" fill="#7C6CF0" />
  <path d="M-80 -6 Q-82 -78 0 -82 Q-44 -74 -58 -40 Q-72 -26 -80 -6 Z" fill="#8A7BF5" />
</g></g></g>
      </g>
    </g>

    <!-- Accessories render above the front hair (Mii-style) so they never get
         buried under bangs. Glasses are anchored at the eye line midpoint;
         hair accessories share the head origin like the hair mounts. -->
    <g transform="translate(160 132)">
      <g data-kugutu-slot-mount="glasses"><g data-kugutu-variant-slot="glasses" data-kugutu-variant-id="glasses-round"><g>
  <line x1="-46" y1="-2" x2="-76" y2="-9" stroke="#34344A" stroke-width="3.5" stroke-linecap="round" />
  <line x1="46" y1="-2" x2="76" y2="-9" stroke="#34344A" stroke-width="3.5" stroke-linecap="round" />
  <path d="M-10 -3 Q0 -9 10 -3" fill="none" stroke="#34344A" stroke-width="3.5" stroke-linecap="round" />
  <circle cx="-28" cy="0" r="18" fill="#FFFFFF" opacity="0.22" data-kugutu-color-preserve />
  <circle cx="28" cy="0" r="18" fill="#FFFFFF" opacity="0.22" data-kugutu-color-preserve />
  <circle cx="-28" cy="0" r="18" fill="none" stroke="#34344A" stroke-width="3.5" />
  <circle cx="28" cy="0" r="18" fill="none" stroke="#34344A" stroke-width="3.5" />
</g></g><g data-kugutu-variant-slot="glasses" data-kugutu-variant-id="glasses-square"><g>
  <line x1="-47" y1="-4" x2="-76" y2="-10" stroke="#34344A" stroke-width="3.5" stroke-linecap="round" />
  <line x1="47" y1="-4" x2="76" y2="-10" stroke="#34344A" stroke-width="3.5" stroke-linecap="round" />
  <path d="M-10 -4 Q0 -9 10 -4" fill="none" stroke="#34344A" stroke-width="3.5" stroke-linecap="round" />
  <rect x="-47" y="-15" width="38" height="30" rx="7" fill="#FFFFFF" opacity="0.22" data-kugutu-color-preserve />
  <rect x="9" y="-15" width="38" height="30" rx="7" fill="#FFFFFF" opacity="0.22" data-kugutu-color-preserve />
  <rect x="-47" y="-15" width="38" height="30" rx="7" fill="none" stroke="#34344A" stroke-width="3.5" />
  <rect x="9" y="-15" width="38" height="30" rx="7" fill="none" stroke="#34344A" stroke-width="3.5" />
</g></g><g data-kugutu-variant-slot="glasses" data-kugutu-variant-id="glasses-sunglasses"><g>
  <line x1="-46" y1="-3" x2="-76" y2="-10" stroke="#34344A" stroke-width="3.5" stroke-linecap="round" />
  <line x1="46" y1="-3" x2="76" y2="-10" stroke="#34344A" stroke-width="3.5" stroke-linecap="round" />
  <path d="M-10 -4 Q0 -10 10 -4" fill="none" stroke="#34344A" stroke-width="3.5" stroke-linecap="round" />
  <path d="M-46 -13 Q-28 -17 -10 -13 Q-8 12 -26 15 Q-44 17 -46 -13 Z" fill="#34344A" />
  <path d="M46 -13 Q28 -17 10 -13 Q8 12 26 15 Q44 17 46 -13 Z" fill="#34344A" />
  <path d="M-40 -8 Q-32 -11 -24 -9" fill="none" stroke="#FFFFFF" stroke-width="2.5" stroke-linecap="round" opacity="0.55" data-kugutu-color-preserve />
  <path d="M16 -8 Q24 -11 32 -9" fill="none" stroke="#FFFFFF" stroke-width="2.5" stroke-linecap="round" opacity="0.55" data-kugutu-color-preserve />
</g></g><g data-kugutu-variant-slot="glasses" data-kugutu-variant-id="glasses-none"><g><!-- no glasses --></g></g></g>
    </g>

    <g transform="translate(160 126)">
      <g data-kugutu-slot-mount="hair.accessory"><g data-kugutu-variant-slot="hair.accessory" data-kugutu-variant-id="hair-accessory-ribbon"><g>
  <path d="M46 -64 Q26 -80 20 -70 Q16 -60 30 -52 Q40 -56 46 -64 Z" fill="#FF8360" />
  <path d="M46 -64 Q66 -82 74 -70 Q78 -58 62 -50 Q52 -54 46 -64 Z" fill="#FF8360" />
  <circle cx="46" cy="-64" r="6.5" fill="#FF8360" />
  <circle cx="46" cy="-64" r="6.5" fill="#34344A" opacity="0.2" data-kugutu-color-preserve />
</g></g><g data-kugutu-variant-slot="hair.accessory" data-kugutu-variant-id="hair-accessory-flower"><g>
  <circle cx="-46" cy="-71" r="6" fill="#FF9E9E" />
  <circle cx="-54.6" cy="-64.8" r="6" fill="#FF9E9E" />
  <circle cx="-51.3" cy="-54.7" r="6" fill="#FF9E9E" />
  <circle cx="-40.7" cy="-54.7" r="6" fill="#FF9E9E" />
  <circle cx="-37.4" cy="-64.8" r="6" fill="#FF9E9E" />
  <circle cx="-46" cy="-62" r="4.5" fill="#F6D365" data-kugutu-color-preserve />
</g></g><g data-kugutu-variant-slot="hair.accessory" data-kugutu-variant-id="hair-accessory-hairpin"><g>
  <line x1="-60" y1="-55" x2="-40" y2="-41" stroke="#46C2A8" stroke-width="4" stroke-linecap="round" />
  <line x1="-42" y1="-55" x2="-60" y2="-42" stroke="#46C2A8" stroke-width="4" stroke-linecap="round" />
</g></g><g data-kugutu-variant-slot="hair.accessory" data-kugutu-variant-id="hair-accessory-none"><g><!-- no hair accessory --></g></g></g>
    </g>
  </g>
</svg>
